<svg id="Capa_1" enable-background="new 0 0 508.279 508.279" height="112" viewBox="0 0 508.279 508.279" width="112" xmlns="http://www.w3.org/2000/svg"><g><g><path d="m467.542 246.22-40.106-25.765h-321.694l-48.593 59.923-.973 49.898c17.653 96.694 102.325 169.991 204.117 169.991 114.598 0 207.498-92.9 207.498-207.498v-30.899z" fill="#c9e1fc"/><path d="m467.543 246.218-.053-3.333c-.141-8.871-4.705-17.084-12.162-21.89l-38.86-25.04c-78.345-50.483-176.292-59.883-262.808-25.222l-28.694 11.496c-40.263 16.131-66.971 54.784-67.816 98.15z" fill="#ffe0d1"/><g><path d="m317.459 196.967h.01z" fill="#a59ca6"/></g><g><path d="m368.672 213.184h.01z" fill="#a59ca6"/></g><path d="m135.394 251.923-29.652-7.501-47.09 29.45c-5.97 3.73-5.22 12.64 1.28 15.33l27.42 11.32 16 9.74 35.322-12.769z" fill="#efb4b2"/><path d="m430.922 251.472c4.8 3.98 4.67 11.39-.28 15.2l-67.77 52.17c-65.31 50.29-154.83 55.18-225.23 12.31l-34.29-20.88v-.01l-2.48-10.47c-3.69-15.61-2.96-31.94 2.13-47.16l2.74-8.21 21.16-13.23c25.8-16.13 53.61-27.29 82.17-33.54 24.81-5.46 50.18-7.21 75.28-5.32 52.57 3.95 103.97 23.83 146.57 59.14z" fill="#f8f7f8"/><g><path d="m284.352 192.332c25.33 12.28 42.8 38.24 42.8 68.28 0 41.87-33.95 75.82-75.82 75.82-41.88 0-75.83-33.95-75.83-75.82 0-26.23 13.33-49.35 33.57-62.96 24.81-5.46 50.18-7.21 75.28-5.32z" fill="#a59ca6"/></g><path d="m275.384 330.506c-41.88 0-75.83-33.95-75.83-75.82 0-24.854 11.984-46.922 30.458-60.747-7.008.948-14.002 2.187-20.941 3.714-20.24 13.61-33.57 36.73-33.57 62.96 0 41.87 33.95 75.82 75.83 75.82 10.659 0 20.797-2.197 30-6.168-1.964.152-3.942.241-5.947.241z" fill="#8f8390"/><circle cx="251.328" cy="260.609" fill="#8f8390" r="44.098"/><g><circle cx="232.646" cy="239.76" fill="#f8f7f8" r="22.112"/><path d="m17.565 83.681 113.384-49.659c130.086-56.974 282.256-18.048 369.003 94.395 2.528 3.276-1.105 7.719-4.818 5.892l-52.621-25.892c-82.239-40.467-177.371-45.859-263.656-14.944l-136.067 48.752c-8.149 2.92-17.181-.838-20.855-8.675l-12.832-27.375c-4.005-8.544-.181-18.709 8.462-22.494z" fill="#a59ca6"/></g></g><g><path d="m66.665 343.044c-1.202-4.643-2.248-9.392-3.11-14.114-.743-4.075-4.656-6.776-8.724-6.032-4.075.744-6.776 4.65-6.032 8.725.927 5.079 2.052 10.187 3.345 15.181.875 3.379 3.919 5.622 7.256 5.622.622 0 1.255-.078 1.885-.241 4.009-1.038 6.418-5.13 5.38-9.141z"/><path d="m222.937 489.287c-9.218-1.741-18.391-4.159-27.264-7.186-3.916-1.337-8.181.755-9.521 4.676-1.337 3.92.757 8.183 4.677 9.52 9.543 3.256 19.409 5.857 29.324 7.729.47.089.938.132 1.4.132 3.534 0 6.681-2.51 7.361-6.11.771-4.07-1.906-7.992-5.977-8.761z"/><path d="m382.761 450.9c-7.423 5.757-15.313 11.033-23.452 15.679-3.597 2.054-4.849 6.635-2.794 10.232 1.384 2.424 3.915 3.783 6.52 3.783 1.261 0 2.539-.318 3.712-.988 8.748-4.995 17.229-10.665 25.208-16.853 3.272-2.538 3.868-7.25 1.33-10.522-2.54-3.275-7.253-3.87-10.524-1.331z"/><path d="m104.445 418.124c-2.598-3.226-7.318-3.736-10.546-1.136-3.226 2.598-3.734 7.319-1.136 10.545 6.324 7.852 13.263 15.328 20.623 22.219 1.446 1.354 3.287 2.025 5.124 2.025 2.003 0 4-.797 5.477-2.374 2.831-3.024 2.675-7.77-.349-10.601-6.849-6.413-13.307-13.37-19.193-20.678z"/><path d="m75.656 369.776c-1.596-3.822-5.987-5.627-9.811-4.031-3.822 1.596-5.627 5.988-4.031 9.811 3.881 9.294 8.469 18.407 13.637 27.086 1.403 2.356 3.895 3.664 6.451 3.664 1.306 0 2.628-.341 3.83-1.057 3.56-2.119 4.727-6.722 2.607-10.281-4.807-8.074-9.073-16.549-12.683-25.192z"/><path d="m333.882 478.797c-8.725 3.454-17.776 6.312-26.904 8.495-4.028.963-6.514 5.01-5.55 9.039.822 3.442 3.896 5.757 7.288 5.757.577 0 1.164-.067 1.75-.207 9.818-2.348 19.555-5.422 28.938-9.137 3.852-1.525 5.737-5.883 4.213-9.734-1.527-3.852-5.889-5.738-9.735-4.213z"/><path d="m169.704 471.125c-8.353-4.252-16.484-9.143-24.169-14.536-3.39-2.379-8.068-1.56-10.447 1.83-2.38 3.391-1.561 8.068 1.83 10.447 8.26 5.798 17.002 11.055 25.981 15.626 1.09.555 2.252.818 3.396.818 2.731 0 5.365-1.498 6.689-4.099 1.88-3.691.411-8.207-3.28-10.086z"/><path d="m279.159 491.891c-9.303.869-18.836 1.093-28.207.663-4.137-.196-7.646 3.01-7.836 7.148s3.01 7.646 7.148 7.836c3.322.152 6.697.23 10.029.23 6.753 0 13.57-.317 20.262-.943 4.124-.385 7.154-4.041 6.77-8.166-.385-4.123-4.033-7.159-8.166-6.768z"/><path d="m458.003 356.384c-3.898-1.409-8.196.603-9.606 4.498-3.19 8.809-7.046 17.477-11.459 25.763-1.946 3.656-.562 8.198 3.095 10.145 1.123.598 2.329.882 3.519.882 2.683 0 5.277-1.443 6.627-3.976 4.745-8.911 8.891-18.232 12.322-27.706 1.409-3.894-.604-8.195-4.498-9.606z"/><path d="m432.444 408.893c-3.346-2.441-8.037-1.709-10.479 1.638-5.527 7.575-11.644 14.828-18.181 21.56-2.886 2.971-2.816 7.72.154 10.605 1.458 1.416 3.342 2.12 5.225 2.12 1.956 0 3.911-.761 5.381-2.275 7.025-7.233 13.599-15.028 19.538-23.168 2.441-3.347 1.708-8.039-1.638-10.48z"/><path d="m467.839 298.814c-4.122-.267-7.7 2.869-7.966 7.003-.604 9.381-1.877 18.782-3.785 27.943-.844 4.055 1.759 8.027 5.813 8.872.516.107 1.03.159 1.537.159 3.478 0 6.598-2.433 7.335-5.972 2.051-9.85 3.42-19.956 4.068-30.039.266-4.134-2.868-7.7-7.002-7.966z"/><path d="m467.791 254.372c-4.143 0-7.5 3.358-7.5 7.5v15c0 4.142 3.357 7.5 7.5 7.5s7.5-3.358 7.5-7.5v-15c0-4.143-3.357-7.5-7.5-7.5z"/><path d="m251.328 308.358c26.328 0 47.748-21.42 47.748-47.749s-21.42-47.749-47.748-47.749c-1.848 0-3.721.122-5.596.345-3.949-1.954-8.39-3.058-13.086-3.058-16.328 0-29.612 13.284-29.612 29.612 0 3.547.628 6.95 1.777 10.105-.814 3.524-1.232 7.126-1.232 10.744 0 26.33 21.42 47.75 47.749 47.75zm32.748-47.749c0 18.058-14.69 32.749-32.748 32.749-16.205 0-29.691-11.833-32.289-27.311 4.078 2.119 8.703 3.325 13.607 3.325 16.328 0 29.611-13.284 29.611-29.612 0-3.753-.709-7.341-1.988-10.648 13.724 3.902 23.807 16.54 23.807 31.497zm-51.43-35.461c8.057 0 14.611 6.555 14.611 14.612s-6.555 14.612-14.611 14.612c-8.058 0-14.612-6.555-14.612-14.612s6.555-14.612 14.612-14.612z"/><path d="m408.669 335.238c-1.85-11.49-7.163-22.149-15.122-30.543l19.56-15.059c6.375 6.52 11.281 14.428 14.235 23.062 1.065 3.115 3.978 5.074 7.095 5.074.806 0 1.625-.131 2.43-.406 3.919-1.341 6.009-5.605 4.667-9.524-3.483-10.178-9.133-19.558-16.464-27.415l10.149-7.814c4.173-3.213 6.621-8.076 6.716-13.341.094-5.265-2.177-10.212-6.231-13.573-5.522-4.577-11.187-8.902-16.976-12.975 6.328-4.371 11.836-9.736 16.343-15.857l28.131 18.126c1.257.81 2.664 1.196 4.056 1.196 2.464 0 4.878-1.213 6.312-3.438 2.243-3.482 1.239-8.124-2.242-10.367l-28.721-18.506c1.697-3.834 3.075-7.835 4.062-11.983l1.545-6.5c.958-4.03-1.533-8.073-5.562-9.031-4.028-.959-8.073 1.533-9.031 5.562l-1.545 6.499c-.587 2.47-1.36 4.87-2.272 7.202l-9.271-5.974c-7.497-4.831-15.174-9.294-23.004-13.389.656-4.526.872-9.131.575-13.747l-.417-6.485c-.266-4.134-3.835-7.271-7.966-7.003-4.134.266-7.269 3.832-7.003 7.966l.417 6.485c.124 1.93.132 3.858.039 5.776-12.972-5.911-26.302-10.848-39.878-14.799.202-4.243.065-8.53-.469-12.827l-.625-5.018c-.512-4.111-4.265-7.025-8.369-6.516-4.11.512-7.027 4.259-6.516 8.369l.625 5.017c.293 2.357.435 4.711.449 7.053-16.304-3.836-32.894-6.277-49.581-7.308-.093-2.577-.287-5.154-.603-7.721l-.47-3.824c-.505-4.112-4.272-7.032-8.358-6.529-4.111.505-7.035 4.247-6.53 8.358l.47 3.823c.218 1.778.359 3.561.449 5.345-38.176-.417-76.56 6.538-112.894 21.094l-95.116 38.106c-3.845 1.541-5.714 5.906-4.173 9.751 1.54 3.846 5.909 5.713 9.751 4.173l95.116-38.106c34.311-13.746 70.547-20.353 106.598-20.03-1.366 9.306-4.436 18.346-9.094 26.574-45.373 1.859-90.559 15.282-131.032 40.595l-68.254 42.681c-5.15 3.222-8.035 8.984-7.527 15.038s4.312 11.256 9.927 13.576l26.882 11.103 40.507 24.667c3.535 2.155 8.151 1.034 10.306-2.505 2.155-3.538 1.033-8.152-2.505-10.307l-22.328-13.597-1.758-7.424c-3.377-14.264-2.706-29.152 1.94-43.056l1.892-5.661 18.869-11.801c16.717-10.455 34.289-18.752 52.352-24.938-9.771 13.85-15.219 30.54-15.219 47.996 0 45.943 37.378 83.321 83.321 83.321 40.368 0 74.846-28.807 81.98-68.497.732-4.077-1.979-7.976-6.055-8.709-4.081-.733-7.976 1.978-8.709 6.055-5.849 32.537-34.117 56.151-67.217 56.151-37.673 0-68.321-30.649-68.321-68.321 0-22.379 10.912-43.229 29.243-56.036 23.025-4.916 46.521-6.565 69.8-4.979 17.783 8.967 30.719 25.07 35.551 44.371.853 3.407 3.91 5.681 7.27 5.681.604 0 1.216-.073 1.827-.227 4.019-1.006 6.46-5.079 5.454-9.097-3.507-14.008-10.509-26.638-20.17-36.875 41.012 7.789 80.377 25.803 114.151 53.798.717.594.812 1.354.805 1.754s-.13 1.157-.868 1.726l-67.773 52.179c-27.956 21.523-61.266 34.906-96.328 38.702-34.843 3.771-70.006-2.052-101.702-16.84-3.752-1.75-8.215-.127-9.968 3.626-1.751 3.753-.128 8.216 3.626 9.968 27.419 12.792 57.241 19.363 87.359 19.363 7.424 0 14.87-.399 22.299-1.204.65-.07 1.298-.151 1.947-.228.965 4.784.58 9.792-1.198 14.363-1.501 3.86.412 8.207 4.272 9.708.894.347 1.812.512 2.716.512 3.003 0 5.839-1.817 6.992-4.784 2.733-7.03 3.408-14.714 2.053-22.093 9.759-1.876 19.347-4.448 28.695-7.69 1.901 5.623 2.513 11.617 1.742 17.53-.536 4.107 2.358 7.872 6.466 8.408.329.043.656.064.98.064 3.71 0 6.934-2.752 7.427-6.53 1.098-8.409.194-16.944-2.606-24.912 7.516-3.236 14.842-6.92 21.94-11.035 6.011 6.513 9.555 14.969 9.978 23.821.191 4.016 3.508 7.143 7.485 7.143.12 0 .241-.003.363-.008 4.138-.198 7.331-3.712 7.134-7.849-.546-11.445-4.831-22.409-12.122-31.194 3.258-2.224 6.462-4.538 9.599-6.954l14.13-10.879c6.496 6.369 10.832 14.694 12.285 23.713.594 3.686 3.778 6.308 7.396 6.308.396 0 .798-.031 1.201-.096 4.089-.66 6.87-4.509 6.211-8.598zm-316.429-40.519-.986-.6c-.331-.202-.678-.378-1.037-.526l-27.421-11.326c-.16-.066-.647-.267-.706-.964-.058-.697.388-.976.534-1.067l30.337-18.973c-2.246 11.009-2.497 22.334-.721 33.456zm320.164-92.459 10.034 6.465c-4.657 6.1-10.609 11.199-17.538 14.894-7.559-4.65-15.3-8.894-23.192-12.731 5.081-5.856 9.091-12.552 11.89-19.725 6.385 3.44 12.66 7.136 18.806 11.097zm-32.264-17.883c-2.698 7.512-7.096 14.395-12.914 19.997-11.892-4.931-24.072-8.966-36.438-12.112 4.714-7.018 8.16-14.738 10.246-22.839 13.332 3.984 26.407 8.973 39.106 14.954zm-53.586-18.861c-2.145 8.431-6.14 16.346-11.803 23.185-14.5-2.752-29.194-4.296-43.928-4.623 3.688-8.22 6.135-16.956 7.285-25.872 16.312 1.021 32.526 3.465 48.446 7.31z"/><path d="m505.891 123.835c-21.823-28.287-48-52.478-77.804-71.9-29.053-18.933-60.855-32.9-94.526-41.513-33.669-8.613-68.271-11.633-102.849-8.978-35.47 2.725-70.047 11.375-102.772 25.707l-113.383 49.659c-6.049 2.65-10.661 7.513-12.986 13.693s-2.062 12.876.74 18.855l12.832 27.375c4.115 8.779 12.749 13.999 21.915 13.998 2.741 0 5.531-.467 8.261-1.445l136.067-48.752c46.133-16.529 96.315-22.645 145.12-17.687 4.115.42 7.801-2.582 8.22-6.704.418-4.121-2.583-7.801-6.704-8.219-51.018-5.184-103.472 1.21-151.694 18.489l-136.068 48.751c-4.535 1.625-9.49-.439-11.534-4.798l-12.832-27.375c-1.071-2.285-1.172-4.844-.283-7.207.889-2.362 2.651-4.221 4.964-5.234l113.383-49.659c31.179-13.655 64.118-21.896 97.904-24.491 32.938-2.531 65.903.347 97.982 8.553s62.377 21.512 90.054 39.548c23.826 15.528 45.221 34.256 63.774 55.808l-37.847-18.623c-26.98-13.275-55.668-22.991-85.266-28.878-4.064-.806-8.012 1.83-8.818 5.893-.809 4.062 1.83 8.011 5.893 8.819 28.316 5.632 55.761 14.926 81.568 27.625l52.621 25.892c4.787 2.356 10.489 1.116 13.865-3.014 3.378-4.13 3.461-9.964.203-14.188z"/><path d="m38.382 423.7c-2.891-2.729-7.408-2.729-10.297 0l-16.216 15.31c-3.012 2.844-3.148 7.59-.305 10.603 2.842 3.012 7.59 3.147 10.602.305l3.567-3.368v24.839c0 4.142 3.357 7.5 7.5 7.5s7.5-3.358 7.5-7.5v-24.839l3.568 3.369c1.449 1.368 3.3 2.046 5.147 2.046 1.991 0 3.979-.789 5.455-2.352 2.843-3.012 2.706-7.759-.306-10.602z"/><path d="m183.519 391.973c-3.435-2.318-8.096-1.413-10.412 2.02l-13.897 20.587-1.073-4.788c-.904-4.042-4.914-6.585-8.957-5.68s-6.585 4.916-5.68 8.958l4.874 21.762c.777 3.473 3.859 5.862 7.311 5.862.404 0 .813-.033 1.224-.1l22.007-3.617c4.088-.672 6.856-4.53 6.185-8.617-.671-4.086-4.529-6.858-8.616-6.185l-4.842.796 13.897-20.587c2.316-3.432 1.411-8.094-2.021-10.411z"/><path d="m360.58 434.833 4.875-21.762c.905-4.042-1.637-8.053-5.679-8.958-4.047-.906-8.054 1.637-8.958 5.679l-1.073 4.788-13.897-20.587c-2.316-3.433-6.979-4.337-10.412-2.02s-4.338 6.979-2.02 10.413l13.897 20.587-4.841-.796c-4.085-.665-7.945 2.097-8.617 6.185s2.097 7.945 6.184 8.617l22.006 3.617c.411.067.82.1 1.225.1 3.451-.001 6.533-2.39 7.31-5.863z"/></g></g></svg>